<?xml version="1.0" encoding="UTF-8"?>
<svg id="Capa_1" data-name="Capa 1" xmlns="http://www.w3.org/2000/svg" version="1.1" viewBox="0 0 20 20">
  <path d="M19,4h-5v-1.7c0-.6-.3-1.2-.8-1.7-.4-.4-1.1-.6-1.7-.6h-3c-.6,0-1.3.2-1.7.6-.5.4-.7,1-.8,1.7v1.7H1c-.3,0-.5.1-.7.3-.2.2-.3.4-.3.7s.1.5.3.7c.2.2.4.3.7.3h1v11c0,.8.3,1.6.9,2.1.6.6,1.3.9,2.1.9h10c.8,0,1.6-.3,2.1-.9.6-.6.9-1.3.9-2.1V6h1c.3,0,.5-.1.7-.3.2-.2.3-.4.3-.7s-.1-.5-.3-.7c-.2-.2-.4-.3-.7-.3ZM8,14c0,.3-.1.5-.3.7-.2.2-.4.3-.7.3s-.5-.1-.7-.3-.3-.4-.3-.7v-4c0-.3.1-.5.3-.7.2-.2.4-.3.7-.3s.5.1.7.3.3.4.3.7v4ZM8,2.3c0-.2.2-.3.5-.3h3c.3,0,.5.2.5.3v1.7h-4v-1.7ZM14,14c0,.3-.1.5-.3.7s-.4.3-.7.3-.5-.1-.7-.3-.3-.4-.3-.7v-4c0-.3.1-.5.3-.7s.4-.3.7-.3.5.1.7.3.3.4.3.7v4Z" fill="#dbdcdd" stroke-width="0"/>
</svg>